# xmcd
#
# Track frame offsets: 
#        150
#        14132
#        30600
#        43482
#        62250
#        74517
#        91865
#        105710
#        122445
#        136030
#        149340
#        161002
#
# Disc length: 2398 seconds
#
# Revision: 2
# Processed by: cddbd v1.4PL0 Copyright (c) Steve Scherf et al.
# Submitted via: ExactAudioCopy v0.90b4
#
DISCID=a5095c0c
DTITLE=Mark Chesnutt - Greatest Hits
DYEAR=1996
DGENRE=Country
TTITLE0=Bubba Shot The Jukebox
TTITLE1=Too Cold At Home
TTITLE2=Blame It On Texas
TTITLE3=Almost Goodbye
TTITLE4=It's A Little Too Late
TTITLE5=Ol' Country
TTITLE6=Brother Jukebox
TTITLE7=Gonna Get A Life
TTITLE8=Let It Rain
TTITLE9=It Sure Is Monday
TTITLE10=Goin' Through The Big D
TTITLE11=I'll Think Of Something
EXTD=
EXTT0=
EXTT1=
EXTT2=
EXTT3=
EXTT4=
EXTT5=
EXTT6=
EXTT7=
EXTT8=
EXTT9=
EXTT10=
EXTT11=
PLAYORDER=
